<svg id="Group_1747" data-name="Group 1747" xmlns="http://www.w3.org/2000/svg" width="45.482" height="45.482" viewBox="0 0 45.482 45.482">
  <circle id="Ellipse_89" data-name="Ellipse 89" cx="22.741" cy="22.741" r="22.741" transform="translate(0 0)" fill="#481380"/>
  <g id="Group_1381" data-name="Group 1381" transform="translate(2.514 16.858)">
    <path id="Path_2078" data-name="Path 2078" d="M878.636,225.026h2.122l1.611,4.323h.026l1.493-4.323h1.978l-2.515,6.367H881.27Z" transform="translate(-878.636 -221.489)" fill="#fff"/>
    <path id="Path_2079" data-name="Path 2079" d="M949.908,223.646a3.346,3.346,0,1,1-3.537,3.341A3.323,3.323,0,0,1,949.908,223.646Zm0,4.952a1.612,1.612,0,1,0-1.572-1.611A1.489,1.489,0,0,0,949.908,228.6Z" transform="translate(-938.655 -220.266)" fill="#fff"/>
    <path id="Path_2080" data-name="Path 2080" d="M1024.72,231.393h-1.886v-.865h-.026a2.064,2.064,0,0,1-1.86,1.022c-1.991,0-2.358-1.31-2.358-3.013v-3.511h1.965v3.118c0,.734.013,1.677,1.022,1.677s1.179-.8,1.179-1.625v-3.17h1.965Z" transform="translate(-1002.646 -221.489)" fill="#fff"/>
    <path id="Path_2081" data-name="Path 2081" d="M1087.379,225.86a1.214,1.214,0,0,0-.969-.485,1.612,1.612,0,0,0,0,3.223,1.252,1.252,0,0,0,.969-.485l1.3,1.363a3.2,3.2,0,0,1-2.266.852,3.346,3.346,0,1,1,0-6.682,3.194,3.194,0,0,1,2.266.852Z" transform="translate(-1059.606 -220.266)" fill="#fff"/>
    <path id="Path_2082" data-name="Path 2082" d="M1141.992,193.975v4.4h.026a1.841,1.841,0,0,1,1.782-1.022c1.991,0,2.358,1.31,2.358,3.013v3.511h-1.965v-3.118c0-.734-.013-1.677-1.022-1.677s-1.179.8-1.179,1.624v3.171h-1.965v-9.9Z" transform="translate(-1110.25 -193.975)" fill="#fff"/>
    <path id="Path_2083" data-name="Path 2083" d="M1207.586,260.448a1.205,1.205,0,1,1-1.205,1.205A1.2,1.2,0,0,1,1207.586,260.448Z" transform="translate(-1169.046 -252.876)" fill="#fff"/>
  </g>
</svg>
